#define bat_empty_width 32
#define bat_empty_height 32
static unsigned char bat_empty_bits[] = {
   0x00, 0x00, 0x00, 0x00, 0x00, 0x00, 0x00, 0x00, 0x00, 0x00, 0x00, 0x00,
   0x00, 0x00, 0x00, 0x00, 0x00, 0x00, 0x00, 0x00, 0x00, 0x00, 0x00, 0x00,
   0x00, 0x00, 0x00, 0x00, 0x00, 0x00, 0x00, 0x00, 0x00, 0x00, 0x00, 0x00,
   0xf0, 0xff, 0xff, 0x03, 0x30, 0x00, 0x00, 0x02, 0x10, 0x00, 0x00, 0x02,
   0x30, 0x00, 0x00, 0x02, 0x10, 0x00, 0x00, 0x1e, 0x30, 0x00, 0x00, 0x12,
   0x10, 0x00, 0x00, 0x12, 0x30, 0x00, 0x00, 0x12, 0x10, 0x00, 0x00, 0x12,
   0x30, 0x00, 0x00, 0x1e, 0x10, 0x00, 0x00, 0x02, 0x30, 0x00, 0x00, 0x02,
   0x10, 0x00, 0x00, 0x02, 0x30, 0x00, 0x00, 0x02, 0xf0, 0xff, 0xff, 0x03,
   0x00, 0x00, 0x00, 0x00, 0x00, 0x00, 0x00, 0x00, 0x00, 0x00, 0x00, 0x00,
   0x00, 0x00, 0x00, 0x00, 0x00, 0x00, 0x00, 0x00, 0x00, 0x00, 0x00, 0x00,
   0x00, 0x00, 0x00, 0x00, 0x00, 0x00, 0x00, 0x00 };
