#define bat_charging_width 32
#define bat_charging_height 32
static unsigned char bat_charging_bits[] = {
   0x00, 0x00, 0x00, 0x00, 0x00, 0x00, 0x00, 0x00, 0x00, 0x00, 0x00, 0x00,
   0x00, 0x00, 0x00, 0x00, 0x00, 0x00, 0x00, 0x00, 0x00, 0x00, 0x00, 0x00,
   0x00, 0x00, 0x00, 0x00, 0x00, 0x00, 0x00, 0x00, 0x00, 0x00, 0x00, 0x00,
   0xf0, 0xff, 0xff, 0x03, 0x10, 0x00, 0x00, 0x02, 0x10, 0x00, 0x00, 0x02,
   0x10, 0x10, 0x02, 0x02, 0x10, 0x10, 0x02, 0x1e, 0x10, 0x10, 0x02, 0x12,
   0x10, 0xf8, 0x07, 0x12, 0x10, 0xf0, 0x03, 0x12, 0x10, 0xf0, 0x03, 0x12,
   0x10, 0xe0, 0x01, 0x1e, 0x10, 0xe0, 0x01, 0x02, 0x10, 0xc0, 0x00, 0x02,
   0x10, 0xc0, 0x00, 0x02, 0x10, 0xc0, 0x00, 0x02, 0xf0, 0xff, 0xff, 0x03,
   0x00, 0x00, 0x00, 0x00, 0x00, 0x00, 0x00, 0x00, 0x00, 0x00, 0x00, 0x00,
   0x00, 0x00, 0x00, 0x00, 0x00, 0x00, 0x00, 0x00, 0x00, 0x00, 0x00, 0x00,
   0x00, 0x00, 0x00, 0x00, 0x00, 0x00, 0x00, 0x00 };
