#define ring_width 176
#define ring_height 32
static unsigned char ring_bits[] = {
   0x00, 0x00, 0x00, 0x00, 0x00, 0x00, 0x00, 0x00, 0x00, 0x00, 0x00, 0x00,
   0x00, 0x00, 0x00, 0x00, 0x00, 0x00, 0x00, 0x00, 0x00, 0x00, 0x00, 0x00,
   0x00, 0x00, 0x00, 0x00, 0x00, 0x00, 0x00, 0x00, 0x00, 0x00, 0x00, 0x00,
   0x00, 0x00, 0x00, 0x00, 0x00, 0x00, 0x00, 0x00, 0x00, 0x00, 0x00, 0x00,
   0x00, 0x00, 0x00, 0x00, 0x00, 0x00, 0x00, 0x00, 0x00, 0x00, 0x00, 0x00,
   0x00, 0x00, 0x00, 0x00, 0x00, 0x00, 0x00, 0x00, 0x00, 0x00, 0x00, 0x00,
   0x00, 0x00, 0x00, 0x00, 0x00, 0x00, 0x00, 0x00, 0x00, 0x00, 0x00, 0x00,
   0x00, 0x00, 0x00, 0x00, 0x00, 0x00, 0x00, 0x00, 0x00, 0x00, 0x00, 0x00,
   0x00, 0x00, 0x00, 0x00, 0x00, 0x00, 0x00, 0x00, 0x00, 0x00, 0x00, 0x00,
   0x00, 0x00, 0x00, 0x00, 0x00, 0x00, 0x00, 0x00, 0x00, 0x00, 0x00, 0x80,
   0x01, 0x00, 0x00, 0x00, 0x00, 0x00, 0x00, 0x00, 0xe0, 0xe3, 0x03, 0x00,
   0x00, 0x00, 0x00, 0x00, 0x00, 0x00, 0x00, 0x00, 0x00, 0x80, 0x01, 0x00,
   0x00, 0x00, 0x00, 0x00, 0x00, 0x00, 0xc0, 0xc3, 0x03, 0x00, 0xfc, 0x01,
   0x00, 0x00, 0x00, 0x00, 0x00, 0x00, 0x00, 0x80, 0x01, 0x00, 0x00, 0x00,
   0x00, 0xc0, 0x1f, 0x00, 0x00, 0x03, 0x03, 0x00, 0xf8, 0x00, 0x00, 0x00,
   0x00, 0x00, 0x00, 0x00, 0x00, 0x00, 0x00, 0x00, 0x00, 0x00, 0x00, 0xe0,
   0x3c, 0x00, 0x00, 0x03, 0x03, 0x00, 0x70, 0x00, 0x00, 0x00, 0x00, 0x00,
   0x00, 0x00, 0x00, 0x00, 0x00, 0x00, 0x00, 0x00, 0x00, 0x38, 0x70, 0x00,
   0x00, 0x03, 0x03, 0x00, 0x70, 0x00, 0x00, 0x00, 0x00, 0x00, 0x00, 0x00,
   0x00, 0x00, 0x00, 0x00, 0x00, 0x00, 0x00, 0x18, 0x30, 0x00, 0x00, 0x03,
   0x03, 0x00, 0x70, 0x78, 0x1e, 0xc0, 0x0f, 0xf8, 0xe0, 0x79, 0x7c, 0xe0,
   0xe1, 0x79, 0x00, 0xdf, 0x01, 0x1c, 0x10, 0xf8, 0x00, 0x03, 0x03, 0x00,
   0x70, 0x70, 0x79, 0xe0, 0x1c, 0xce, 0xc1, 0xe5, 0xe6, 0xc0, 0xc1, 0xe5,
   0x81, 0xb9, 0x01, 0x1c, 0x00, 0xde, 0x03, 0x03, 0x03, 0x00, 0x70, 0xe0,
   0x60, 0x70, 0x18, 0x07, 0x83, 0xc3, 0xc3, 0x81, 0x81, 0x83, 0xc1, 0x30,
   0x00, 0x0c, 0x00, 0x0e, 0x03, 0x03, 0x03, 0x00, 0x70, 0xe0, 0x60, 0x30,
   0x18, 0x03, 0x87, 0x83, 0xc1, 0x81, 0x81, 0x83, 0xc1, 0x70, 0x00, 0x0e,
   0x00, 0x04, 0x03, 0x03, 0x03, 0x00, 0x70, 0x60, 0x60, 0x30, 0x00, 0x03,
   0x87, 0x81, 0x81, 0x81, 0x81, 0x81, 0xc1, 0x60, 0x00, 0x0e, 0x00, 0x00,
   0x03, 0x03, 0x03, 0x00, 0x70, 0x60, 0x60, 0x38, 0x80, 0x03, 0x86, 0x81,
   0x81, 0x81, 0x81, 0x81, 0xc1, 0x60, 0x00, 0x0e, 0x00, 0x00, 0x03, 0x03,
   0x03, 0x00, 0x70, 0x60, 0x60, 0x38, 0x80, 0x03, 0x86, 0x81, 0x81, 0x81,
   0x81, 0x81, 0xc1, 0x70, 0x00, 0x0e, 0x00, 0xfc, 0x03, 0x03, 0x03, 0x00,
   0x70, 0x60, 0x60, 0x38, 0x80, 0x03, 0x86, 0x81, 0x81, 0x81, 0x81, 0x81,
   0xc1, 0x31, 0x00, 0x0c, 0x00, 0x0e, 0x03, 0x03, 0x03, 0x00, 0x70, 0x60,
   0x60, 0x38, 0x80, 0x03, 0x87, 0x81, 0x81, 0x81, 0x81, 0x81, 0x81, 0x1f,
   0x00, 0x1c, 0x00, 0x07, 0x03, 0x03, 0x03, 0x00, 0x70, 0x60, 0x60, 0x30,
   0x00, 0x03, 0x87, 0x81, 0x81, 0x81, 0x81, 0x81, 0x81, 0x01, 0x00, 0x1c,
   0x00, 0x07, 0x03, 0x03, 0x03, 0x00, 0x70, 0x60, 0x60, 0x30, 0x00, 0x03,
   0x87, 0x81, 0x81, 0x81, 0x81, 0x81, 0xc1, 0x00, 0x00, 0x18, 0x00, 0x07,
   0x03, 0x03, 0x03, 0x00, 0x70, 0x60, 0x60, 0x70, 0x10, 0x07, 0x83, 0x81,
   0x81, 0x81, 0x81, 0x81, 0xc1, 0x00, 0x00, 0x38, 0x20, 0x87, 0x03, 0x03,
   0x03, 0x00, 0xf8, 0xf0, 0xe0, 0xe1, 0x19, 0xce, 0xc1, 0x87, 0x83, 0xc3,
   0xc7, 0x83, 0x87, 0x7f, 0x00, 0xf0, 0x38, 0x4e, 0xc7, 0xc7, 0x07, 0x00,
   0xfc, 0xf9, 0xe1, 0x81, 0x0f, 0xf8, 0xe0, 0x87, 0x87, 0xe7, 0xef, 0x87,
   0x87, 0xff, 0x00, 0xc0, 0x0f, 0x3c, 0xee, 0xef, 0x0f, 0x00, 0x00, 0x00,
   0x00, 0x00, 0x00, 0x00, 0x00, 0x00, 0x00, 0x00, 0x00, 0x00, 0x60, 0xc0,
   0x00, 0x00, 0x00, 0x00, 0x00, 0x00, 0x00, 0x00, 0x00, 0x00, 0x00, 0x00,
   0x00, 0x00, 0x00, 0x00, 0x00, 0x00, 0x00, 0x00, 0x60, 0xc0, 0x00, 0x00,
   0x00, 0x00, 0x00, 0x00, 0x00, 0x00, 0x00, 0x00, 0x00, 0x00, 0x00, 0x00,
   0x00, 0x00, 0x00, 0x00, 0x00, 0x00, 0x60, 0xc0, 0x00, 0x00, 0x00, 0x00,
   0x00, 0x00, 0x00, 0x00, 0x00, 0x00, 0x00, 0x00, 0x00, 0x00, 0x00, 0x00,
   0x00, 0x00, 0x00, 0x00, 0x60, 0xc0, 0x00, 0x00, 0x00, 0x00, 0x00, 0x00,
   0x00, 0x00, 0x00, 0x00, 0x00, 0x00, 0x00, 0x00, 0x00, 0x00, 0x00, 0x00,
   0x00, 0x00, 0xe0, 0x79, 0x00, 0x00, 0x00, 0x00, 0x00, 0x00, 0x00, 0x00,
   0x00, 0x00, 0x00, 0x00, 0x00, 0x00, 0x00, 0x00, 0x00, 0x00, 0x00, 0x00,
   0x80, 0x1f, 0x00, 0x00, 0x00, 0x00, 0x00, 0x00, 0x00, 0x00, 0x00, 0x00,
   0x00, 0x00, 0x00, 0x00, 0x00, 0x00, 0x00, 0x00, 0x00, 0x00, 0x00, 0x00,
   0x00, 0x00, 0x00, 0x00, 0x00, 0x00, 0x00, 0x00 };
