#define sms_width 176
#define sms_height 32
static unsigned char sms_bits[] = {
   0x00, 0x00, 0x00, 0x00, 0x00, 0x00, 0x00, 0x00, 0x00, 0x00, 0x00, 0x00,
   0x00, 0x00, 0x00, 0x00, 0x00, 0x00, 0x00, 0x00, 0x00, 0x00, 0x00, 0x00,
   0x00, 0x00, 0x00, 0x00, 0x00, 0x00, 0x00, 0x00, 0x00, 0x00, 0x00, 0x00,
   0x00, 0x00, 0x00, 0x00, 0x00, 0x00, 0x00, 0x00, 0x00, 0x00, 0x00, 0x00,
   0x00, 0x00, 0x00, 0x00, 0x00, 0x00, 0x00, 0x00, 0x00, 0x00, 0x00, 0x00,
   0x00, 0x00, 0x00, 0x00, 0x00, 0x00, 0x00, 0x00, 0x00, 0x00, 0x00, 0x00,
   0x00, 0x00, 0x00, 0x00, 0x00, 0x00, 0x00, 0x00, 0x00, 0x00, 0x00, 0x00,
   0x00, 0x00, 0x00, 0x00, 0x00, 0x00, 0x00, 0x00, 0x00, 0x00, 0x00, 0x00,
   0x00, 0x00, 0x00, 0x00, 0x00, 0x00, 0x00, 0x00, 0x00, 0x00, 0x00, 0x00,
   0x00, 0x00, 0xfc, 0x00, 0x7f, 0x00, 0x00, 0x00, 0x00, 0x00, 0x00, 0x80,
   0x1f, 0xf8, 0x03, 0xc0, 0x1f, 0xf8, 0x01, 0x00, 0x00, 0x00, 0x00, 0x00,
   0xfc, 0x01, 0x7f, 0x00, 0x00, 0x00, 0x00, 0x00, 0x00, 0xc0, 0x7f, 0xf8,
   0x07, 0xc0, 0x1f, 0xfc, 0x07, 0x00, 0x00, 0x00, 0x00, 0x00, 0xe0, 0x01,
   0x0c, 0x00, 0x00, 0x00, 0x00, 0x00, 0x00, 0xe0, 0xe0, 0xc0, 0x07, 0xe0,
   0x03, 0x0e, 0x0e, 0x00, 0x00, 0x00, 0x00, 0x00, 0xe0, 0x03, 0x0c, 0x00,
   0x00, 0x00, 0x00, 0x00, 0x00, 0x70, 0xe0, 0xc0, 0x07, 0xe0, 0x03, 0x07,
   0x0e, 0x00, 0x00, 0x00, 0x00, 0x00, 0xe0, 0x07, 0x0c, 0x00, 0x00, 0x00,
   0x00, 0x00, 0x00, 0x70, 0xc0, 0xc0, 0x0f, 0xe0, 0x03, 0x07, 0x0c, 0x00,
   0x00, 0x00, 0x00, 0x00, 0xe0, 0x07, 0x0c, 0xc0, 0x07, 0x7f, 0x30, 0xf8,
   0x03, 0x70, 0x00, 0xc0, 0x0e, 0xb0, 0x03, 0x07, 0x00, 0x00, 0x00, 0x00,
   0x00, 0x00, 0x60, 0x0f, 0x0c, 0xf0, 0x1f, 0x7f, 0x70, 0xf8, 0x03, 0x70,
   0x00, 0xc0, 0x0e, 0xb0, 0x03, 0x07, 0x00, 0x00, 0x00, 0x00, 0x00, 0x00,
   0x60, 0x0e, 0x0c, 0x38, 0x1c, 0x1c, 0x70, 0xe0, 0x00, 0x70, 0x00, 0xc0,
   0x1c, 0xb0, 0x03, 0x07, 0x00, 0x00, 0x00, 0x00, 0x00, 0x00, 0x60, 0x1e,
   0x0c, 0x18, 0x38, 0x1c, 0x78, 0x40, 0x00, 0xf0, 0x00, 0xc0, 0x1c, 0x98,
   0x03, 0x0f, 0x00, 0x00, 0x00, 0x00, 0x00, 0x00, 0x60, 0x3c, 0x0c, 0x1c,
   0x38, 0x38, 0xf8, 0x60, 0x00, 0xe0, 0x03, 0xc0, 0x1c, 0x98, 0x03, 0x3e,
   0x00, 0x00, 0x00, 0x00, 0x00, 0x00, 0x60, 0x38, 0x0c, 0x1c, 0x38, 0x38,
   0xe8, 0x60, 0x00, 0xc0, 0x1f, 0xc0, 0x38, 0x98, 0x03, 0xfc, 0x01, 0x00,
   0x00, 0x00, 0x00, 0x00, 0x60, 0x78, 0x0c, 0x1c, 0x78, 0x38, 0xcc, 0x20,
   0x00, 0x00, 0x3f, 0xc0, 0x38, 0x8c, 0x03, 0xf0, 0x03, 0x00, 0x00, 0x00,
   0x00, 0x00, 0x60, 0xf0, 0x0c, 0xfc, 0x7f, 0x38, 0xcc, 0x31, 0x00, 0x00,
   0x7c, 0xc0, 0x38, 0x8c, 0x03, 0xc0, 0x07, 0x00, 0x00, 0x00, 0x00, 0x00,
   0x60, 0xe0, 0x0c, 0xfc, 0x7f, 0x70, 0xc4, 0x31, 0x00, 0x00, 0xf0, 0xc0,
   0x70, 0x84, 0x03, 0x00, 0x0f, 0x00, 0x00, 0x00, 0x00, 0x00, 0x60, 0xe0,
   0x0d, 0x1c, 0x00, 0x70, 0x86, 0x31, 0x00, 0x00, 0xe0, 0xc1, 0x70, 0x86,
   0x03, 0x00, 0x1e, 0x00, 0x00, 0x00, 0x00, 0x00, 0x60, 0xc0, 0x0f, 0x1c,
   0x00, 0x70, 0x86, 0x13, 0x00, 0x00, 0xc0, 0xc1, 0x70, 0x86, 0x03, 0x00,
   0x1c, 0x00, 0x00, 0x00, 0x00, 0x00, 0x60, 0x80, 0x0f, 0x1c, 0x00, 0x60,
   0x82, 0x1b, 0x00, 0x30, 0xc0, 0xc1, 0xe0, 0x82, 0x03, 0x03, 0x1c, 0x00,
   0x00, 0x00, 0x00, 0x00, 0x60, 0x80, 0x0f, 0x1c, 0x00, 0xe0, 0x83, 0x1b,
   0x00, 0x38, 0xc0, 0xc1, 0xe0, 0x83, 0x83, 0x03, 0x1c, 0x00, 0x00, 0x00,
   0x00, 0x00, 0x60, 0x00, 0x0f, 0x38, 0x20, 0xe0, 0x03, 0x0b, 0x00, 0x30,
   0xc0, 0xc0, 0xc0, 0x83, 0x03, 0x03, 0x0c, 0x00, 0x00, 0x00, 0x00, 0x00,
   0x60, 0x00, 0x0f, 0x38, 0x30, 0xe0, 0x01, 0x0f, 0x00, 0x70, 0xe0, 0xc0,
   0xc0, 0x81, 0x03, 0x07, 0x0e, 0x00, 0x00, 0x00, 0x00, 0x00, 0xfc, 0x03,
   0x0e, 0xf0, 0x1f, 0xc0, 0x01, 0x0f, 0x00, 0xe0, 0x7f, 0xf8, 0xc3, 0xe1,
   0x1f, 0xfe, 0x07, 0x00, 0x00, 0x00, 0x00, 0x00, 0xfc, 0x03, 0x0c, 0xc0,
   0x0f, 0xc0, 0x01, 0x06, 0x00, 0xc0, 0x1f, 0xf8, 0x83, 0xe1, 0x1f, 0xfc,
   0x01, 0x00, 0x00, 0x00, 0x00, 0x00, 0x00, 0x00, 0x00, 0x00, 0x00, 0x00,
   0x00, 0x00, 0x00, 0x00, 0x00, 0x00, 0x00, 0x00, 0x00, 0x00, 0x00, 0x00,
   0x00, 0x00, 0x00, 0x00, 0x00, 0x00, 0x00, 0x00, 0x00, 0x00, 0x00, 0x00,
   0x00, 0x00, 0x00, 0x00, 0x00, 0x00, 0x00, 0x00, 0x00, 0x00, 0x00, 0x00,
   0x00, 0x00, 0x00, 0x00, 0x00, 0x00, 0x00, 0x00, 0x00, 0x00, 0x00, 0x00,
   0x00, 0x00, 0x00, 0x00, 0x00, 0x00, 0x00, 0x00, 0x00, 0x00, 0x00, 0x00,
   0x00, 0x00, 0x00, 0x00, 0x00, 0x00, 0x00, 0x00, 0x00, 0x00, 0x00, 0x00,
   0x00, 0x00, 0x00, 0x00, 0x00, 0x00, 0x00, 0x00, 0x00, 0x00, 0x00, 0x00,
   0x00, 0x00, 0x00, 0x00, 0x00, 0x00, 0x00, 0x00, 0x00, 0x00, 0x00, 0x00,
   0x00, 0x00, 0x00, 0x00, 0x00, 0x00, 0x00, 0x00 };
